# xmcd
#
# Track frame offsets:
#   150
#   21006
#   36106
#   47715
#   79266
#   102553
#   144125
#   161739
#   192978
#   207027
#   232414
#   257802
#   276144
#
# Disc length: 4025 seconds
#
# Revision: 0
# Processed by: cddbd v1.5.2PL0 Copyright (c) Steve Scherf et al.
# Submitted via: GXTranscoder 2.0.1939
#
DISCID=b70fb70d
DTITLE=James Siegel - Getäuscht CD3
DYEAR=2006
DGENRE=Blues
TTITLE0=03-01 - Getäuscht
TTITLE1=03-02 - Getäuscht
TTITLE2=03-03 - Getäuscht
TTITLE3=03-04 - Getäuscht
TTITLE4=03-05 - Getäuscht
TTITLE5=03-06 - Getäuscht
TTITLE6=03-07 - Getäuscht
TTITLE7=03-08 - Getäuscht
TTITLE8=03-09 - Getäuscht
TTITLE9=03-10 - Getäuscht
TTITLE10=03-11 - Getäuscht
TTITLE11=03-12 - Getäuscht
TTITLE12=03-13 - Getäuscht
EXTD=
EXTT0=
EXTT1=
EXTT2=
EXTT3=
EXTT4=
EXTT5=
EXTT6=
EXTT7=
EXTT8=
EXTT9=
EXTT10=
EXTT11=
EXTT12=
PLAYORDER=
